<?xml version="1.0" encoding="UTF-8"?>
<svg id="Layer_1" xmlns="http://www.w3.org/2000/svg" version="1.1" viewBox="0 0 653.8 266.9">
  <!-- Generator: Adobe Illustrator 29.0.0, SVG Export Plug-In . SVG Version: 2.1.0 Build 186)  -->
  <defs>
    <style>
      .st0 {
        fill: #dcffc7;
      }

      .st1 {
        fill: #99c555;
      }
    </style>
  </defs>
  <polygon class="st0" points="76.8 97.3 41.4 101.7 41.4 126.3 82.4 116.3 82.4 153.1 43.1 162.6 43.1 150.9 72 134.1 69.4 124.6 43.1 133.2 34.4 132.3 31.8 90 76.8 83.5 76.8 97.3"/>
  <polygon class="st0" points="94.9 81.8 97.9 150.9 132.1 150.9 138.1 77.9 123 79.6 120 132.8 111.5 134.5 104 80.5 94.9 81.8"/>
  <polygon class="st0" points="250.4 46.9 201.9 59.7 206.8 93.5 241.7 88.4 243.2 107.9 207.9 117.1 208.4 139.1 266.8 131.4 261.2 77.9 220.7 77.9 220.7 69.4 249.4 60.2 250.4 46.9"/>
  <polygon class="st0" points="278.1 52.5 281 138.8 325 137 332.9 38.4 316.5 41.2 305.5 109.9 296.5 110.4 293.3 49.9 278.1 52.5"/>
  <polygon class="st0" points="442.5 26.4 404.3 30.9 408.3 134.5 427.1 131.5 423.4 84.9 439.7 84.9 440.2 71.7 420.7 67.2 420.7 53.7 442.5 50 442.5 26.4"/>
  <polygon class="st0" points="552.6 44.1 513.1 44.7 507.6 112.1 532.2 132.5 546.7 103.8 517.2 102.7 521.9 67.2 548.3 65.4 552.6 44.1"/>
  <polygon class="st0" points="606.9 26.4 557.8 37.1 557.8 134.5 622.4 131.6 619.1 104.4 577.8 109.7 577.8 87.9 606.8 83.3 606.1 67.2 572.8 64.7 572 52.2 606.1 46.9 606.9 26.4"/>
  <path class="st0" d="M382.1,84.7l13.2-45.3-38.6.3-17.1,89h18.4l5.9-33.1,10.3,36.5,16.4.3-8.6-47.7h.1ZM371.6,66.6l-10-1,4.4-16.2,15.4,1.5-9.9,15.7h.1Z"/>
  <path class="st0" d="M482.9,40.7l-21.7,1.1-11.7,99.4,17.1-2,3-51.1,8.3-.4,11,51.5,17.3-2.5-23.3-96h0ZM475.4,72.8l-5.5.3,1.2-15.1,3.5-.2.8,15Z"/>
  <path class="st0" d="M178.7,109.8v-42.8l-29.6,3.4,4.9,78.9,32.1-3.2,7.5-33-15-3.2h.1ZM161.3,79.6l8.3-2.1v27.1h-6.9l-1.4-25h0ZM175.9,137.9h-10.5v-15.8l14.8-1.2-4.3,17Z"/>
  <g>
    <path class="st1" d="M152.3,206.2c-1.3-3.5-3.4-9.1-6.9-17.7-1.3-3.1-1.4-3.4-3.8-3.7-.3,0-.3-.1-.3-.3,0-.2.3-.8.4-1,.1-.2.3-.2.7-.2h3.8c1.7,0,3.4,0,5.1,0s.3.7.3,1.3,0,.3-.2.3c-1.9.2-2.5.3-2.4.8,0,.4.3,1,.6,2,2.1,6.1,5.2,13.9,6.9,17.9.2.3.4.4.5,0,1.3-3,4.6-10.9,5.9-14.1.2-.5,0-1,0-1.4-.8-2.4-1.2-3.3-1.6-4.2-.3-.9-.7-1-2.8-1.1-.2,0-.3-.2-.3-.4.2-1,.4-1.3.8-1.3.7,0,2.4,0,4.3,0s4,0,4.7,0c.2,0,.2,1.5,0,1.6-2.6.3-2.6.5-2.3,1.6,1.6,4.9,5.2,13.7,7.4,19.2.1.3.3.3.5,0,1.7-4.2,6.3-15.7,7.1-19.7.1-.7-.3-.8-.8-.9-.7,0-1.4-.1-2-.2-.1,0-.2-.2-.1-.4,0-.6.1-1.3.5-1.3s3.2.2,4.4.2,2.9,0,3.5,0c.5,0,.7,0,.7.3v1.2c.2.1,0,.3,0,.3-2.4,0-2.5.3-4.5,4.6-1.3,2.8-4.9,11.7-7.4,18.4-.3.8-1.3,2.7-2,4.3-.1.4-.5.5-.8.5-.6,0-.8-.3-1-.9-.3-.8-.7-1.9-1.4-4-.7-2.2-3.2-8.7-5.4-14.2-1.8,4.4-3.7,8.5-5.9,14-.5,1.3-1.4,3.1-2,4.5-.2.4-.3.6-.4.6-.3,0-.6,0-.9,0s-.4-.1-.5-.4c-.2-.7-1-3-2.2-6.2Z"/>
    <path class="st1" d="M187.1,211.4c-.1-.3,0-.4,0-.5,2.5-1,2.6-1.1,2.6-5.6v-16.4c0-2.7,0-2.8-1.7-4.3-.2-.2-.2-.5,0-.7.7-.6,3.6-2.1,4.9-2.8.3-.1.5,0,.6,0,.1.2.2.3.2.5,0,2.8-.2,5.6-.2,9v5c0,.2.2.4.3.4,1-.4,3.7-1.7,4.9-2.1,1-.3,1.8-.5,2.6-.5,4.1,0,5.2,3.4,5.2,7.4s0,4.8-.1,7.4c0,1.6.3,1.7,2.1,2.3.4.1.4.2.4.3v.9c0,.3,0,.3-.4.3h-3.3c-2.2,0-4.2.1-4.8.2-.2,0-.2,0-.3-.6,0-.7,0-.7.1-.8.2,0,.9-.4,1.4-.6.8-.3,1-.7,1.2-1.8.2-2,.2-3.3.2-5.1,0-4.3-.8-5.5-1.8-6.3-1-.7-1.9-.8-2.8-.8-1.4,0-3.1.6-4.2,1.3-.5.2-.7.5-.7,1.4v4.9c0,2.5.1,3.8.3,5,0,1.1.4,1.3,2.4,1.5.3,0,.3,0,.3,1.2,0,.3,0,.4-.2.4-3.8,0-6.3,0-8.4.2-.3,0-.3,0-.4-.1l-.3-.7Z"/>
    <path class="st1" d="M214.1,199.4c-.3,0-.6.1-.9.1s-.7-.4-.7-.6c0-.3.2-.7.4-1.1.9-1.4,4.2-3.3,5.6-3.8,1-.3,2-.6,2.6-.6,2.1,0,3.2.8,3.9,1.6.8.8,1,1.7,1,2.4,0,3.2,0,6.5,0,9.4s.3,3.2,1,3.2,2.1-.6,2.4-.7c.1,0,.4.3.4.5v1c-.1.1-.2.3-.4.4-.6.4-3.7,1.3-5.2,1.3s-1.6-.4-1.9-2.4c-1.9.8-5.2,2.3-6.1,2.4-.7,0-1.7-.2-2.7-1.1-.7-.6-1.4-1.9-1.4-3.6s.7-2.1,2-2.8c2.4-1.3,5.5-2.1,8.4-2.6,0-.8,0-2,0-2.8,0-1.7-.3-2.8-.8-3.2-.3-.3-1.4-.7-2.8-.7s-1.4.2-1.6.3c-.2.1-.3.4-.3,1.9s0,.4-.3.5l-2.6.8ZM221.2,209.1c.6-.4,1-.7,1.1-1.2,0-.6,0-2.5,0-3.2s-.2-.5-.3-.5c-2.7.4-4.4,1-5.4,1.7-.3.2-.6.5-.6,1.4,0,1.7.7,2.7,2.3,2.7s1.7-.3,2.8-.9Z"/>
    <path class="st1" d="M237.8,190.9c0,.7-.2,3.1-.2,3.5,2.2,0,5-.3,6.6-.3s.6,0,.5.5c0,.4-.1,1-.3,1.5,0,.6-.3.7-.7.7-1.3,0-3.4,0-5.9.1,0,0-.1,0-.2.7-.2,2.2-.2,6.7-.2,9.2s1.4,3.1,3.4,3.1,1.9-.3,2.8-1c.3-.2.4-.2.5,0,.1.3.2.7.2,1s0,.3-.4.5c-1.9,1.1-3.7,2.1-5.9,2.1s-2.6-.4-3.6-1.6c-.6-.8-.7-1.6-.7-3.3,0-2.7.1-8.8.2-10.1,0-.3-.2-.6-.5-.6-.6,0-1.5,0-1.8,0-.2,0-.4-.5-.3-.6,1.7-1.4,4.6-4.2,5.8-5.4.2-.3.4-.3.6-.3s.2.1.2.3Z"/>
    <path class="st1" d="M253,184.1c0,3.2-3.4,6.3-5.1,7.4-.3.2-.7.3-1.4.1-.2,0-.2-.2-.1-.3,1.3-1.7,2.6-3.3,2.6-4.9s-.3-1.4-1-2c-.3-.3-.3-.4-.2-.7,0-.2.3-.5.5-.5.9-.3,1.4-1,1.9-1.7.2-.3.3-.4.7-.4,1,0,2.1,1.4,2.1,3Z"/>
    <path class="st1" d="M263.7,211.2c-1.4.9-3.2,1.3-4.9,1.3s-3.3-.3-4-.4c-.8-.2-1-.2-1.7,0,0,0-.2,0-.4,0-.1-.1-.2-.3-.1-.5.2-1.7.2-3.3,0-5.2,0-.2,0-.3.1-.4.2,0,.4-.2,1.2-.3.4,1.3,1.1,2.6,2.1,3.6,1.2,1.3,2.4,1.7,3.1,1.7,1.2,0,3-.9,3-2.5,0-2.5-2.8-3.5-4.2-4.3-1.2-.7-4.7-2.1-4.7-5.2s.7-2.8,2.1-3.9c1.3-1,3-1.4,4.2-1.4s2.2.2,3.1.2.7,0,.8-.1c.1,0,.2,0,.3,0,.1.1.1.2.1.3,0,1.4.4,2.9.9,4.7,0,.2-.3.4-.4.4-.7,0-1,0-1.4-.7-.7-1.2-1.9-3.2-4.2-3.2s-2.1.7-2.1,2.3,2,3,3.9,3.9c1.3.7,5.4,2.2,5.4,5.9s-.7,2.8-2.3,3.8Z"/>
    <path class="st1" d="M282.2,197.8c0-.2-.4-.3-2.4-.7-.2,0-.3-.1-.1-.7.3-.8.3-.9.6-.9,2.1-.6,3.4-1.1,5.6-2,0,0,0,0,.2,0,.1,0,.2,0,.2.3-.1,2.9-.3,8.5-.4,11.9,0,2.2,0,3.1,0,3.5,0,.7.2.9.8.9,1.2,0,1.7,0,1.8,0s.4.3.4.4v1.4c-.2.3-.3.3-.6.3-1.4,0-2.8,0-4.2,0-2.1,0-4,.2-4.2.2s-.3,0-.3-.2c0-.3,0-.8,0-1.2s0-.2.3-.2c1.7-.2,2.1-.3,2.3-1.6.1-.7.4-3.8.3-6.6v-4.6ZM287,186c0,1.7-1.3,2.6-2.6,2.6s-2.1-.9-2.1-2.3,1.6-2.6,2.6-2.6,2.1,1.1,2.1,2.3Z"/>
    <path class="st1" d="M291.7,210.9c1.5-.7,2-1,2.2-2.2.2-1.4.3-3.9.3-6s0-3.4-.2-4.3c0-.6-.2-.8-2.3-1.3-.2,0-.2-.2,0-1.1,0-.1.1-.2.5-.4,1.9-.8,3.8-1.8,4.1-2,.2-.2.4-.2.7-.2s.4.1.4.4c0,.7.2,1.5.2,2.3s.2.3.3.3c1.9-1,2.8-1.5,4-2,.8-.3,1.7-.6,2.6-.6,1.3,0,2.2.3,3.1,1,1.2,1,1.9,2.6,2.1,4.6,0,1,0,2.2,0,4.1v6.3c0,.3,0,.4.3.4.4,0,1.7-.1,2.6-.2.1,0,.2.2.2.5s-.1,1.1-.2,1.3c0,.2-.2.2-.4.2-4.3,0-5.9.2-7.7.2s-.4,0-.5-.2l-.2-1c1.4-.6,1.8-.9,2-2.2.2-1.5.3-4,.3-6.3s0-3.8-1.2-4.9c-.7-.7-1.7-1-3-1s-2.8.7-3.7,1.2c-.5.3-.5.5-.6,1,0,1.7,0,8.2,0,10.6s.1.8,2.6,1.2c.3,0,.3.2.3.4l-.3,1.1h-4.2c-1.9,0-3.4.2-4.3.2s-.2,0-.1-.3v-1.1Z"/>
    <path class="st1" d="M345,203c0,4.7-3,7.1-3.7,7.6-1.9,1.1-4.2,2-6.3,2s-5.3-1-7.1-3.4c-1.4-1.8-2-4.3-2-5.9s.7-4.2,1.9-5.6c1-1.4,1.8-2,3.1-2.7,1.5-.7,3.8-1.4,5.2-1.4,3.4,0,8.8,3.1,8.8,9.5ZM331.9,196.5c-1.3,1.3-1.7,3-1.7,6s1.2,4.8,2.2,5.9c1.6,1.7,3.1,2.1,4.3,2.1s1.6-.2,2.3-.8c1-1,1.9-2.7,1.9-5.3s-.7-5.7-2.7-7.5c-.9-.8-2.4-1.6-3.8-1.6s-1.7.3-2.4,1.1Z"/>
    <path class="st1" d="M354.5,194.3c0,.3,0,1.3,0,3.2,0,2.2-.2,6.3-.2,9.2s2.3,3,3.8,3c1.5,0,3-.7,4.1-1.6.3-.3.5-.5.6-1.1.2-1.2.3-3,.3-5.3s0-4-.5-4.7c-.3-.4-.8-.6-2.3-1-.3,0-.3-.2-.4-.3,0-.2-.2-.8-.2-1s0-.2.1-.2c.2,0,4.2-.5,6.2-.5s.7.2.7.5c0,.4,0,.7,0,2.1,0,1.4-.2,2.9-.2,5.8v4.4c0,1.5.2,2.5.2,2.8,0,.3.2.3.4.3.2,0,1.3-.3,2.3-.5.2,0,.7.3.6.5-.4,1.6-.5,1.7-.7,1.7-2.4.3-4.9,1-5.6,1.1-.4,0-.7,0-.8-.2-.3-.3-.4-.4-.4-.7v-1.8c-1,.5-2.7,1.4-3.8,2-1,.5-2.1.7-2.9.7-1.7,0-3.5-.5-4.5-2.2-.5-.8-.6-2-.6-3,0-4.5.1-7.5,0-9,0-.8-.2-1-1.8-2-.2-.1-.4-.3-.5-1,0-.5,0-.6.4-.6.7-.2,4.7-1.2,5.2-1.2s.5.3.6.8Z"/>
    <path class="st1" d="M373.3,210.6c1.1-.4,1.2-.5,1.4-1.1,0-.5.1-1.8.1-5.7v-3.9c0-1.2-.2-1.4-1.7-2-.4,0-.7-.9-.6-1.2,1.6-1.1,3.7-2.1,5.1-3.1.2-.1.5-.2.6-.2.2,0,.5.4.4.9,0,1-.2,2.1-.2,3.2,1-.4,3.7-2.6,4.3-3,.5-.3,1-.7,1.4-.7,1.1,0,2.5,1.1,2.5,2.2s-1.1,2-1.6,2.4c-.3.2-.6.3-.8.3s-.5,0-.7-.3c-.4-.4-1.1-1-1.9-1s-2.1.8-2.8,1.5c-.5.4-.6,1-.6,3.1v5.6c0,1.2,0,1.7.2,2,.1.3.3.3.8.3h2.5c.2,0,.5.2.4.4l-.3,1.5h-6.2c-1.4,0-2.5,0-2.8,0s-.3-.1-.2-.4l.5-1.2Z"/>
    <path class="st1" d="M400.5,210.6c1-.4,1.2-.5,1.4-1.1,0-.5.1-1.8.1-5.7v-3.9c0-1.2-.2-1.4-1.7-2-.4,0-.7-.9-.6-1.2,1.6-1.1,3.7-2.1,5.1-3.1.2-.1.5-.2.6-.2.2,0,.5.4.4.9,0,1-.2,2.1-.2,3.2,1-.4,3.7-2.6,4.3-3,.5-.3,1-.7,1.4-.7,1.1,0,2.5,1.1,2.5,2.2s-1.1,2-1.6,2.4c-.3.2-.6.3-.8.3s-.5,0-.7-.3c-.3-.4-1.1-1-1.9-1s-2.1.8-2.8,1.5c-.5.4-.6,1-.6,3.1v5.6c0,1.2,0,1.7.2,2,.1.3.3.3.8.3h2.5c.2,0,.5.2.4.4l-.3,1.5h-6.2c-1.4,0-2.5,0-2.8,0s-.3-.1-.2-.4l.5-1.2Z"/>
    <path class="st1" d="M418.8,197.8c0-.2-.4-.3-2.4-.7-.2,0-.3-.1-.1-.7.3-.8.3-.9.6-.9,2.1-.6,3.4-1.1,5.6-2,0,0,0,0,.2,0,.1,0,.2,0,.2.3-.1,2.9-.3,8.5-.4,11.9,0,2.2,0,3.1,0,3.5,0,.7.2.9.8.9,1.2,0,1.7,0,1.8,0s.4.3.4.4v1.4c-.2.3-.3.3-.6.3-1.4,0-2.8,0-4.2,0-2.1,0-4,.2-4.2.2s-.3,0-.3-.2c0-.3,0-.8,0-1.2s0-.2.3-.2c1.7-.2,2.1-.3,2.3-1.6.1-.7.4-3.8.3-6.6v-4.6ZM423.6,186c0,1.7-1.3,2.6-2.6,2.6s-2.1-.9-2.1-2.3,1.6-2.6,2.6-2.6,2.1,1.1,2.1,2.3Z"/>
    <path class="st1" d="M435.3,194.9c0,.3,0,.4-.3.5-.7.3-1.7.7-2.1,1.1-.2.3-.2.6.2,1.7.6,1.8,2.3,7.1,3.1,8.6.1.3.4.2.6,0,1.4-2.7,2.8-6.1,3.5-8,.3-.9.6-1.6.5-2,0-.5-.6-.8-2-1.2-.2,0-.2-.3,0-.9.2-.5.3-.5.4-.5,1.7,0,3.8-.1,5.2-.1s.3,0,.5.2c.2.2.3.5.4.7s0,.4-.1.6c-2.2,2.1-5.2,8.6-7.8,13.9-.7,1.4-1,2.3-1,2.4,0,.3-.2.4-.3.5-.3,0-.7.1-1.1.1s-.5-.3-.8-1.2c-.5-1.2-2.5-6.8-4.5-12.2-.9-2.4-1.1-3-2.8-3.5-.1,0,.4-1.5.7-1.5,2.1,0,5.8,0,7.5-.1.2,0,.3,0,.3.2v.7Z"/>
    <path class="st1" d="M460.5,195.1c.9.8,1.4,1.8,1.9,3.4.5,0,1.4-.3,1.5,0,.2.2.2.3,0,.4-.1.5-.5,1.4-1,1.5-3.1.8-9.2,1.9-11.1,2.5-.3,0-.5.3-.5.8.1,4.1,2.6,5.9,5.6,5.9s4.1-.8,5.8-2.3c.2-.3.8-.2.8,0,0,1.4-.1,1.7-.5,2-2.1,1.7-4.3,2.6-5.9,3.1-.6.2-1.3.3-1.8.3-3.4,0-5.4-2-6-2.6-.7-.9-2.1-2.9-2.1-5.9s2.4-7.2,5-9c1.2-.8,2.9-1.5,4.2-1.5s3.3.8,4.1,1.6ZM454.8,195.5c-.3,0-.8.2-1.2.4-1.4.9-2.1,3-2.1,5.3,2.3-.5,4.5-.9,6.4-1.4.4,0,.6-.2.6-.7,0-1.4-1.6-3.7-3.7-3.7Z"/>
    <path class="st1" d="M467.4,210.6c1-.4,1.2-.5,1.4-1.1,0-.5.1-1.8.1-5.7v-3.9c0-1.2-.2-1.4-1.7-2-.4,0-.7-.9-.6-1.2,1.6-1.1,3.7-2.1,5.1-3.1.2-.1.5-.2.6-.2.2,0,.5.4.4.9,0,1-.2,2.1-.2,3.2,1-.4,3.7-2.6,4.3-3,.5-.3,1-.7,1.4-.7,1.1,0,2.5,1.1,2.5,2.2s-1.1,2-1.6,2.4c-.3.2-.6.3-.8.3s-.5,0-.7-.3c-.3-.4-1.1-1-1.9-1s-2.1.8-2.8,1.5c-.5.4-.6,1-.6,3.1v5.6c0,1.2,0,1.7.2,2,.1.3.3.3.8.3h2.5c.2,0,.5.2.4.4l-.3,1.5h-6.2c-1.4,0-2.5,0-2.8,0s-.3-.1-.2-.4l.5-1.2Z"/>
    <path class="st1" d="M494.4,211.2c-1.4.9-3.2,1.3-4.9,1.3s-3.3-.3-4-.4c-.8-.2-1-.2-1.7,0,0,0-.2,0-.4,0-.1-.1-.2-.3-.1-.5.2-1.7.2-3.3,0-5.2,0-.2,0-.3.1-.4.2,0,.4-.2,1.2-.3.4,1.3,1.1,2.6,2.1,3.6,1.2,1.3,2.4,1.7,3.1,1.7,1.2,0,3-.9,3-2.5,0-2.5-2.8-3.5-4.2-4.3-1.2-.7-4.7-2.1-4.7-5.2s.7-2.8,2.1-3.9c1.3-1,3-1.4,4.2-1.4s2.2.2,3.1.2.7,0,.8-.1c.1,0,.2,0,.3,0,.1.1.1.2.1.3,0,1.4.4,2.9.9,4.7,0,.2-.3.4-.4.4-.7,0-1,0-1.4-.7-.7-1.2-1.9-3.2-4.2-3.2s-2.1.7-2.1,2.3,2,3,3.9,3.9c1.3.7,5.4,2.2,5.4,5.9s-.7,2.8-2.3,3.8Z"/>
    <path class="st1" d="M506.5,206.3c.3.7.5,1.1,1.4,1.4.7.3.9.3,1,.9.1.6,0,.7-.8,1.1-.8.4-1.2,1-1.5,2.1-.2.6-.9.8-1.4.8s-.5-.2-.7-.7c-.3-.6-.6-1.5-1.5-1.9-.7-.3-.9-.6-1.1-1-.3-.5-.2-.7.2-1,1.7-.7,2-1.1,2.3-1.9.3-.7.4-.9.7-.9.7,0,1.1.2,1.4.9ZM513.2,190.6c0,2.2-.4,4-1.2,5.9-1.1,2.4-2.7,2.7-3.6,2.7-.6,0-2.3.2-2.8.2-1.1,0-1.4.5-1.3,3.2-.3.2-.7.4-.9.6-.3.1-.3.1-.4-.2-.2-.4-.9-3.5-.9-5.2s1.5-2.5,1.7-2.5h2c2.8,0,5.5-.7,5.5-3.1s-1.6-3.6-5-3.6c-.4,0-1.3-1-1.3-1.7,0-1.6,1.4-2.6,2.8-2.6,3.4,0,5.5,4.1,5.5,6.4Z"/>
  </g>
</svg>